<svg xmlns="http://www.w3.org/2000/svg" viewBox="0 0 100 100">
  <circle cx="50" cy="50" r="50" fill="#1DB954"/>
  <path d="M50 20C33.4 20 20 33.4 20 50s13.4 30 30 30 30-13.4 30-30S66.6 20 50 20zm13.8 43.35c-.6.9-1.65 1.2-2.55.6-7.05-4.35-15.9-5.25-26.4-2.85-1.05.3-1.95-.45-2.25-1.35-.3-1.05.45-1.95 1.35-2.25 11.4-2.55 21.3-1.5 29.1 3.3 1.05.45 1.2 1.65.75 2.55zm3.6-8.25c-.75 1.05-2.1 1.5-3.15.75-8.1-4.95-20.4-6.45-29.85-3.45-1.2.3-2.55-.3-2.85-1.5-.3-1.2.3-2.55 1.5-2.85C44.4 45.75 57.75 47.4 67.5 53.1c.9.45 1.35 1.95.6 3zm.3-8.4C59.1 41 43.05 40.4 32.9 43.25c-1.5.45-3-.45-3.45-1.8-.45-1.5.45-3 1.8-3.45 10.65-3.15 28.2-2.55 39.3 4.05 1.35.75 1.8 2.55 1.05 3.9-.75 1.05-2.55 1.5-3.9.75z" fill="#000"/>
</svg>